# Blender 4.2.3 LTS
# www.blender.org
mtllib final.mtl
o Cube
v -0.250000 -0.112645 0.250000
v -0.250000 -0.012645 0.250000
v -0.250000 -0.112645 -0.250000
v -0.250000 -0.012645 -0.250000
v 0.250000 -0.112645 0.250000
v 0.250000 -0.012645 0.250000
v 0.250000 -0.112645 -0.250000
v 0.250000 -0.012645 -0.250000
v 0.132427 -0.112645 -0.250000
v -0.123129 -0.112645 -0.250000
v -0.123129 -0.012645 -0.250000
v 0.132427 -0.012645 -0.250000
v -0.123129 -0.112645 0.250000
v 0.132427 -0.112645 0.250000
v 0.132427 -0.012645 0.250000
v -0.123129 -0.012645 0.250000
v -0.123129 -0.012645 -0.163333
v 0.132427 -0.012645 -0.163333
v -0.123129 -0.012645 0.163333
v 0.132427 -0.012645 0.163333
v -0.123129 -0.002645 -0.163333
v 0.132427 -0.002645 -0.163333
v -0.123129 -0.002645 0.163333
v 0.132427 -0.002645 0.163333
v -0.250000 -0.112645 -0.101444
v -0.250000 -0.112645 0.097086
v -0.250000 -0.012645 0.097086
v -0.250000 -0.012645 -0.101444
v 0.250000 -0.112645 0.097086
v 0.250000 -0.112645 -0.101444
v 0.250000 -0.012645 -0.101444
v 0.250000 -0.012645 0.097086
v 0.177982 -0.012645 -0.101444
v 0.177982 -0.012645 0.097086
v -0.168685 -0.012645 -0.101444
v -0.168685 -0.012645 0.097086
v 0.177982 -0.002645 -0.101444
v 0.177982 -0.002645 0.097086
v -0.168685 -0.002645 -0.101444
v -0.168685 -0.002645 0.097086
v 0.132427 -0.002645 -0.101444
v 0.132427 -0.002645 0.097086
v -0.123129 -0.002645 -0.101444
v -0.123129 -0.002645 0.097086
v -0.123129 -0.112645 -0.101444
v -0.123129 -0.112645 0.097086
v 0.132427 -0.112645 -0.101444
v 0.132427 -0.112645 0.097086
v 0.132427 0.497355 -0.101444
v 0.132427 0.497355 0.097086
v -0.123129 0.497355 -0.101444
v -0.123129 0.497355 0.097086
vn -0.8053 -0.0000 -0.5928
vn -1.0000 -0.0000 -0.0000
vn -0.0000 -0.0000 -1.0000
vn 1.0000 -0.0000 -0.0000
vn -0.0000 1.0000 -0.0000
vn -0.0000 -0.0000 1.0000
vn -0.0000 -1.0000 -0.0000
vn 0.8240 -0.0000 0.5666
vn -0.8240 -0.0000 0.5666
vn 0.8053 -0.0000 -0.5928
vt 0.296972 0.157608
vt 0.226594 0.212533
vt 0.162494 0.168404
vt 0.271665 0.099305
vt 0.340556 0.378755
vt 0.285137 0.352388
vt 0.389017 0.321427
vt 0.389847 0.329517
vt 0.337528 0.248818
vt 0.357561 0.209106
vt 0.395748 0.300685
vt 0.389578 0.302233
vt 0.418800 0.320045
vt 0.528404 0.354286
vt 0.470546 0.382532
vt 0.418282 0.328236
vt 0.511276 0.471450
vt 0.295324 0.473723
vt 0.219895 0.416894
vt 0.359819 0.415866
vt 0.451350 0.419464
vt 0.397161 0.330559
vt 0.305867 0.764800
vt 0.000100 0.764800
vt 0.000100 0.253791
vt 0.305867 0.253791
vt 0.410412 0.299547
vt 0.449794 0.214513
vt 0.468042 0.249613
vt 0.417210 0.300578
vt 0.305867 0.999900
vt 0.000100 0.999900
vt 0.516361 0.155414
vt 0.563930 0.222130
vt 0.523085 0.275875
vt 0.999900 0.764800
vt 0.702848 0.764800
vt 0.702848 0.253791
vt 0.999900 0.253791
vt 0.565255 0.406262
vt 0.629590 0.445675
vt 0.533700 0.521205
vt 0.388330 0.309571
vt 0.284633 0.274276
vt 0.275508 0.522107
vt 0.155522 0.459517
vt 0.012677 0.683733
vt 0.999900 0.999900
vt 0.702848 0.999900
vt 0.539944 0.114456
vt 0.629486 0.182466
vt 0.725344 0.590928
vt 0.411801 0.329397
vt 0.702848 0.000100
vt 0.305867 0.000100
vt 0.000100 0.000100
vt 0.068306 0.000112
vt 0.752049 0.000112
vt 0.418001 0.308349
vt 0.999900 0.000100
vt 0.012677 0.834146
vt 0.151078 0.834146
vt 0.151078 0.941665
vt 0.012677 0.941665
s 0
usemtl Material.005
f 17/1/1 35/2/1 39/3/1 21/4/1
f 2/5/2 27/6/2 26/7/2 1/8/2
f 4/9/3 11/10/3 10/11/3 3/12/3
f 29/13/4 32/14/4 6/15/4 5/16/4
f 20/17/5 19/18/5 36/19/5 27/6/5 2/5/5 16/20/5 15/21/5
f 13/22/6 16/20/6 2/5/6 1/8/6
f 48/23/7 14/24/7 13/25/7 46/26/7
f 9/27/3 12/28/3 8/29/3 7/30/3
f 48/23/7 29/31/7 5/32/7 14/24/7
f 8/29/5 12/28/5 18/33/5 33/34/5 31/35/5
f 9/36/7 47/37/7 45/38/7 10/39/7
f 34/40/8 38/41/8 24/42/8 20/17/8
f 25/43/2 28/44/2 4/9/2 3/12/2
f 36/19/9 19/18/9 23/45/9 40/46/9
f 44/47/5 40/46/5 23/45/5
f 7/48/7 30/49/7 47/37/7 9/36/7
f 18/33/10 22/50/10 37/51/10 33/34/10
f 18/33/3 17/1/3 21/4/3 22/50/3
f 38/41/5 42/52/5 24/42/5
f 42/52/5 44/47/5 23/45/5 24/42/5
f 19/18/6 20/17/6 24/42/6 23/45/6
f 12/28/5 11/10/5 17/1/5 18/33/5
f 32/14/5 34/40/5 20/17/5 15/21/5 6/15/5
f 10/11/3 11/10/3 12/28/3 9/27/3
f 14/53/6 15/21/6 16/20/6 13/22/6
f 6/15/6 15/21/6 14/53/6 5/16/6
f 45/38/7 47/37/7 48/23/7 46/26/7
f 25/54/7 45/38/7 46/26/7 26/55/7
f 46/26/7 13/25/7 1/56/7 26/55/7
f 22/50/5 21/4/5 43/57/5 41/58/5
f 22/50/5 41/58/5 37/51/5
f 37/51/5 41/58/5 42/52/5 38/41/5
f 34/40/4 33/34/4 37/51/4 38/41/4
f 35/2/2 36/19/2 40/46/2 39/3/2
f 21/4/5 39/3/5 43/57/5
f 43/57/5 39/3/5 40/46/5 44/47/5
f 26/7/2 27/6/2 28/44/2 25/43/2
f 30/59/4 31/35/4 32/14/4 29/13/4
f 47/37/7 30/49/7 29/31/7 48/23/7
f 10/39/7 45/38/7 25/54/7 3/60/7
f 8/29/4 31/35/4 30/59/4 7/30/4
f 35/2/5 28/44/5 27/6/5 36/19/5
f 4/9/5 28/44/5 35/2/5 17/1/5 11/10/5
f 31/35/5 33/34/5 34/40/5 32/14/5
f 49/61/5 51/62/5 52/63/5 50/64/5
o Cube.002
v 0.132427 -0.002645 -0.101444
v 0.132427 -0.002645 0.097086
v -0.123129 -0.002645 -0.101444
v -0.123129 -0.002645 0.097086
v 0.132427 0.497355 -0.101444
v 0.132427 0.497355 0.097086
v -0.123129 0.497355 -0.101444
v -0.123129 0.497355 0.097086
vn -0.0000 -0.0000 1.0000
vn -1.0000 -0.0000 -0.0000
vn 1.0000 -0.0000 -0.0000
vn -0.0000 -0.0000 -1.0000
vt 0.002150 0.015734
vt 0.012202 0.022782
vt 0.012202 0.968138
vt 0.002900 0.976107
vt 0.012453 0.000112
vt 0.012453 0.999888
vt 0.008076 0.017679
vt 0.000112 0.976015
s 0
usemtl Material.006
f 56/65/11 54/66/11 58/67/11 60/68/11
f 55/69/12 56/65/12 60/68/12 59/70/12
f 54/66/13 53/71/13 57/72/13 58/67/13
f 53/71/14 55/69/14 59/70/14 57/72/14
o Cube.001
v 0.474713 0.582174 -0.351905
v 0.474713 0.490743 -0.351905
v 0.474713 0.582174 0.367391
v 0.474713 0.490743 0.367391
v -0.435969 0.582174 -0.351905
v -0.435969 0.490743 -0.351905
v -0.435969 0.582174 0.367391
v -0.435969 0.490743 0.367391
vn 1.0000 -0.0000 -0.0000
vn -0.0000 -0.0000 1.0000
vn -1.0000 -0.0000 -0.0000
vn -0.0000 -0.0000 -1.0000
vn -0.0000 1.0000 -0.0000
vn -0.0000 -1.0000 -0.0000
vt 0.375000 0.000000
vt 0.625000 0.000000
vt 0.625000 0.250000
vt 0.375000 0.250000
vt 0.625000 0.500000
vt 0.375000 0.500000
vt 0.625000 0.750000
vt 0.375000 0.750000
vt 0.625000 1.000000
vt 0.375000 1.000000
vt 0.125000 0.500000
vt 0.125000 0.750000
vt 0.875000 0.500000
vt 0.875000 0.750000
s 1
usemtl Material
f 61/73/15 63/76/15 64/75/15 62/74/15
f 63/76/16 67/78/16 68/77/16 64/75/16
f 67/78/17 65/80/17 66/79/17 68/77/17
f 65/80/18 61/82/18 62/81/18 66/79/18
f 63/83/19 61/84/19 65/80/19 67/78/19
f 68/77/20 66/79/20 62/86/20 64/85/20
